<?xml version="1.0" encoding="utf-8"?>
<!-- Generator: Adobe Illustrator 22.0.1, SVG Export Plug-In . SVG Version: 6.00 Build 0)  -->
<svg version="1.1" id="Epilot-Symbol-Blue" xmlns="http://www.w3.org/2000/svg" xmlns:xlink="http://www.w3.org/1999/xlink" x="0px"
	 y="0px" viewBox="0 0 528 512" style="enable-background:new 0 0 528 512;" xml:space="preserve">
<style type="text/css">
	.st0{fill:#039BE5;}
</style>
<path class="st0" d="M376,207.2c0,18.2-4.3,35.3-12,50.5c-2.5,4.9-5.3,9.7-8.5,14.2c-5.7,8-12.4,15.2-19.9,21.5
	c-4.8,4-10,7.7-15.5,10.8c-13.7,7.9-29.2,13-45.8,14.5c-1.3,0.1-2.6,0.2-4,0.3c1.1-4.8,1.7-9.7,1.7-14.8c0-17.6,9.5-33,23.7-41.4
	c0.1,0,0.1-0.1,0.2-0.1c0.2-0.1,0.4-0.2,0.6-0.3c4.2-2.5,8-5.4,11.5-8.7c4.2-4,7.9-8.5,10.9-13.5l0,0l0,0c5.8-9.6,9.1-20.9,9.1-33
	c0-5.1-0.6-10.1-1.7-14.8c-1.4-5.7-3.5-11.2-6.3-16.2c-10.9-19.7-31.9-33-56-33s-45.1,13.3-56,33c-19.5,0-37.9,4.3-54.4,12.1
	c9-52.9,55-93.1,110.4-93.1s101.4,40.3,110.4,93.1C375.5,194.5,376,200.8,376,207.2z"/>
<g>
	<path class="st0" d="M432,304.3c0,61.9-50.1,112-112,112c-13.7,0-26.8-2.5-38.9-6.9c15.4-10.7,28.3-24.8,37.8-41.1
		c0.4,0,0.7,0,1.1,0c35.3,0,64-28.6,64-64c0-12.1-3.3-23.4-9.1-33c9.2-15.9,15.1-33.9,16.7-53.2C416.3,238.6,432,269.6,432,304.3z"
		/>
	<path class="st0" d="M312,207.2c0,6.3-1.2,12.3-3.4,17.8c-2.2,5.4-5.3,10.3-9.1,14.5c-3.2,3.5-6.9,6.6-11.1,9l0,0
		c-0.1,0-0.1,0.1-0.2,0.1c-0.2,0.1-0.4,0.2-0.6,0.3c-9.2,5.4-16.9,13-22.4,22.2c-0.4,0.7-0.8,1.3-1.2,2c-5.1,9.2-8,19.8-8,31
		c0,5.1-0.8,9.9-2.2,14.5c-1.8,5.6-4.5,10.7-8,15.2c-6.8,8.6-16.4,14.8-27.4,17.2c-4.1-8.8-7-18.2-8.7-28
		c-1.1-6.1-1.6-12.4-1.6-18.9l0,0c0-16.8,3.7-32.6,10.3-46.9c0.6-1.2,1.1-2.4,1.8-3.6c1.9-3.7,4-7.3,6.3-10.8
		c0.7-1.1,1.5-2.2,2.2-3.3c9.3-13.2,21.4-24.2,35.5-32.3c5.4-3.2,11.2-5.9,17.1-8.1c9-3.4,18.7-5.6,28.6-6.5
		C311.2,197.3,312,202.2,312,207.2z"/>
</g>
<path class="st0" d="M318.4,323.1c-1.7,9.8-4.6,19.2-8.7,28c-2.3,5-5,9.9-8,14.4c-9.6,14.6-22.5,26.9-37.7,35.7
	c-5.4,3.2-11.2,5.9-17.1,8.1c-12.1,4.5-25.2,6.9-38.9,6.9c-61.9,0-112-50.1-112-112c0-34.6,15.7-65.6,40.5-86.2
	c4.8-4,10-7.7,15.5-10.8c14.8-8.6,31.7-13.8,49.7-14.8c2.1-0.1,4.2-0.2,6.3-0.2c3.5,0,6.9,0.2,10.2,0.5c10,0.9,19.6,3.1,28.6,6.5
	c-10.4,7.2-19.6,16-27.5,25.9c-3.8,4.8-7.2,9.9-10.3,15.2l0,0c-0.4,0-0.7,0-1.1,0c-17,0-32.5,6.6-44,17.5l0,0
	c-4.2,4-7.9,8.5-10.9,13.5c-5.8,9.6-9.1,20.9-9.1,33c0,35.4,28.7,64,64,64c0.4,0,0.8,0,1.1,0c6-0.1,11.7-1,17.2-2.7
	c16.2-4.8,29.7-15.8,37.7-30.3l0,0c6.2,0,12.3-0.4,18.3-1.3C295,332.1,307.2,328.4,318.4,323.1z"/>
</svg>
