<?xml version="1.0" encoding="UTF-8" standalone="no"?><svg xmlns="http://www.w3.org/2000/svg" xmlns:xlink="http://www.w3.org/1999/xlink" contentStyleType="text/css" height="1720px" preserveAspectRatio="none" style="width:428px;height:1720px;background:#FFFFFF;" version="1.1" viewBox="0 0 428 1720" width="428px" zoomAndPan="magnify"><defs/><g><rect fill="none" height="11.7773" style="stroke:none;stroke-width:1.0;" width="94" x="320.5" y="0"/><text fill="#888888" font-family="sans-serif" font-size="10" lengthAdjust="spacing" textLength="94" x="320.5" y="9.668">API First / RFC Flow</text><ellipse cx="225.5" cy="28.7773" fill="#222222" rx="10" ry="10" style="stroke:none;stroke-width:1.0;"/><rect fill="#FFD700" height="34.0625" rx="12.5" ry="12.5" style="stroke:#181818;stroke-width:0.5;" width="79" x="186" y="78.7773"/><text fill="#000000" font-family="Roboto" font-size="12" lengthAdjust="spacing" textLength="59" x="196" y="99.9102">RFC Phase</text><rect fill="#555555" height="8" style="stroke:none;stroke-width:1.0;" width="80" x="185.5" y="152.7773"/><rect fill="#F1F1F1" height="48.125" rx="12.5" ry="12.5" style="stroke:#181818;stroke-width:0.5;" width="219" x="7" y="200.7773"/><text fill="#000000" font-family="Roboto" font-size="12" lengthAdjust="spacing" textLength="199" x="17" y="221.9102">Describe High-Level Problem Context</text><text fill="#000000" font-family="Roboto" font-size="12" lengthAdjust="spacing" textLength="127" x="17" y="235.9727">With Proposed solution</text><rect fill="#555555" height="8" style="stroke:none;stroke-width:1.0;" width="80" x="185.5" y="288.7773"/><rect fill="#F1F1F1" height="48.125" rx="12.5" ry="12.5" style="stroke:#181818;stroke-width:0.5;" width="176" x="246.5" y="200.7773"/><text fill="#000000" font-family="Roboto" font-size="12" lengthAdjust="spacing" textLength="156" x="256.5" y="221.9102">Include concrete API Designs</text><text fill="#000000" font-family="Roboto" font-size="12" lengthAdjust="spacing" textLength="123" x="256.5" y="235.9727">e.g: OpenAPI with a PR</text><rect fill="#FFD700" height="34.0625" rx="12.5" ry="12.5" style="stroke:#181818;stroke-width:0.5;" width="88" x="181.5" y="336.7773"/><text fill="#000000" font-family="Roboto" font-size="12" lengthAdjust="spacing" textLength="68" x="191.5" y="357.9102">API Mocking</text><rect fill="#F1F1F1" height="62.1875" rx="12.5" ry="12.5" style="stroke:#181818;stroke-width:0.5;" width="180" x="42.5" y="410.7773"/><text fill="#000000" font-family="Roboto" font-size="12" lengthAdjust="spacing" textLength="150" x="52.5" y="431.9102">Use serverless boilerplate to</text><text fill="#000000" font-family="Roboto" font-size="12" lengthAdjust="spacing" textLength="160" x="52.5" y="445.9727">deploy mocked version of API</text><text fill="#000000" font-family="Roboto" font-size="12" lengthAdjust="spacing" textLength="118" x="52.5" y="460.0352">(w/ openapi-backend)</text><rect fill="#555555" height="8" style="stroke:none;stroke-width:1.0;" width="80" x="185.5" y="512.7773"/><rect fill="#F1F1F1" height="62.1875" rx="12.5" ry="12.5" style="stroke:#181818;stroke-width:0.5;" width="153" x="243" y="410.7773"/><text fill="#000000" font-family="Roboto" font-size="12" lengthAdjust="spacing" textLength="128" x="253" y="431.9102">Generate SDK API client</text><text fill="#000000" font-family="Roboto" font-size="12" lengthAdjust="spacing" textLength="116" x="253" y="445.9727">part of the boilerplate</text><text fill="#000000" font-family="Roboto" font-size="12" lengthAdjust="spacing" textLength="133" x="253" y="460.0352">(w/ openapi-client-axios)</text><rect fill="#FFD700" height="34.0625" rx="12.5" ry="12.5" style="stroke:#181818;stroke-width:0.5;" width="143" x="154" y="560.7773"/><text fill="#000000" font-family="Roboto" font-size="12" lengthAdjust="spacing" textLength="123" x="164" y="581.9102">Frontend Development</text><rect fill="#F1F1F1" height="48.125" rx="12.5" ry="12.5" style="stroke:#181818;stroke-width:0.5;" width="184" x="133.5" y="634.7773"/><text fill="#000000" font-family="Roboto" font-size="12" lengthAdjust="spacing" textLength="164" x="143.5" y="655.9102">Use create-mfe-app boilerplate</text><text fill="#000000" font-family="Roboto" font-size="12" lengthAdjust="spacing" textLength="130" x="143.5" y="669.9727">to deploy microfrontend</text><rect fill="#F1F1F1" height="48.125" rx="12.5" ry="12.5" style="stroke:#181818;stroke-width:0.5;" width="159" x="146" y="722.7773"/><text fill="#000000" font-family="Roboto" font-size="12" lengthAdjust="spacing" textLength="114" x="156" y="743.9102">Add feature toggle to</text><text fill="#000000" font-family="Roboto" font-size="12" lengthAdjust="spacing" textLength="139" x="156" y="757.9727">hide feature in production</text><rect fill="#F1F1F1" height="48.125" rx="12.5" ry="12.5" style="stroke:#181818;stroke-width:0.5;" width="187" x="132" y="810.7773"/><text fill="#000000" font-family="Roboto" font-size="12" lengthAdjust="spacing" textLength="167" x="142" y="831.9102">Develop microfrontend against</text><text fill="#000000" font-family="Roboto" font-size="12" lengthAdjust="spacing" textLength="113" x="142" y="845.9727">mocked API contract</text><rect fill="#F1F1F1" height="48.125" rx="12.5" ry="12.5" style="stroke:#181818;stroke-width:0.5;" width="231" x="110" y="898.7773"/><text fill="#000000" font-family="Roboto" font-size="12" lengthAdjust="spacing" textLength="153" x="120" y="919.9102">Still cheap to rapidly change</text><text fill="#000000" font-family="Roboto" font-size="12" lengthAdjust="spacing" textLength="211" x="120" y="933.9727">API Design/UI design during this phase</text><rect fill="#FFD700" height="34.0625" rx="12.5" ry="12.5" style="stroke:#181818;stroke-width:0.5;" width="140" x="155.5" y="986.7773"/><text fill="#000000" font-family="Roboto" font-size="12" lengthAdjust="spacing" textLength="120" x="165.5" y="1007.9102">Backend Development</text><rect fill="#F1F1F1" height="48.125" rx="12.5" ry="12.5" style="stroke:#181818;stroke-width:0.5;" width="258" x="96.5" y="1060.7773"/><text fill="#000000" font-family="Roboto" font-size="12" lengthAdjust="spacing" textLength="163" x="106.5" y="1081.9102">Implement serverless backend</text><text fill="#000000" font-family="Roboto" font-size="12" lengthAdjust="spacing" textLength="238" x="106.5" y="1095.9727">using AWS services according to API Design</text><rect fill="#FFD700" height="34.0625" rx="12.5" ry="12.5" style="stroke:#181818;stroke-width:0.5;" width="93" x="179" y="1148.7773"/><text fill="#000000" font-family="Roboto" font-size="12" lengthAdjust="spacing" textLength="73" x="189" y="1169.9102">BETA Release</text><rect fill="#F1F1F1" height="62.1875" rx="12.5" ry="12.5" style="stroke:#181818;stroke-width:0.5;" width="213" x="119" y="1222.7773"/><text fill="#000000" font-family="Roboto" font-size="12" lengthAdjust="spacing" textLength="193" x="129" y="1243.9102">Once the feature is tested and ready</text><text fill="#000000" font-family="Roboto" font-size="12" lengthAdjust="spacing" textLength="185" x="129" y="1257.9727">for internal/pilot customers to test</text><text fill="#000000" font-family="Roboto" font-size="12" lengthAdjust="spacing" textLength="183" x="129" y="1272.0352">ship behind a BETA feature toggle</text><rect fill="#FFD700" height="34.0625" rx="12.5" ry="12.5" style="stroke:#181818;stroke-width:0.5;" width="84" x="183.5" y="1324.7773"/><text fill="#000000" font-family="Roboto" font-size="12" lengthAdjust="spacing" textLength="64" x="193.5" y="1345.9102">Full Release</text><rect fill="#F1F1F1" height="34.0625" rx="12.5" ry="12.5" style="stroke:#181818;stroke-width:0.5;" width="198" x="126.5" y="1398.7773"/><text fill="#000000" font-family="Roboto" font-size="12" lengthAdjust="spacing" textLength="178" x="136.5" y="1419.9102">Remove BETA badge from toggle</text><rect fill="#F1F1F1" height="34.0625" rx="12.5" ry="12.5" style="stroke:#181818;stroke-width:0.5;" width="203" x="124" y="1472.7773"/><text fill="#000000" font-family="Roboto" font-size="12" lengthAdjust="spacing" textLength="183" x="134" y="1493.9102">Marketing announces new feature</text><rect fill="#F1F1F1" height="34.0625" rx="12.5" ry="12.5" style="stroke:#181818;stroke-width:0.5;" width="222" x="114.5" y="1546.7773"/><text fill="#000000" font-family="Roboto" font-size="12" lengthAdjust="spacing" textLength="202" x="124.5" y="1567.9102">Optional: Add userflow to guide users</text><rect fill="#F1F1F1" height="34.0625" rx="12.5" ry="12.5" style="stroke:#181818;stroke-width:0.5;" width="242" x="104.5" y="1620.7773"/><text fill="#000000" font-family="Roboto" font-size="12" lengthAdjust="spacing" textLength="222" x="114.5" y="1641.9102">Not optional: Organise a launch party &#127881;</text><ellipse cx="225.5" cy="1704.7773" fill="none" rx="10" ry="10" style="stroke:#222222;stroke-width:1.0;"/><ellipse cx="226" cy="1705.2773" fill="#222222" rx="6" ry="6" style="stroke:none;stroke-width:1.0;"/><!--MD5=[5dc0f24f44ac1f46ab1808cfa3b43161]
link start to RFC Phase--><g id="link_start_RFC Phase"><path d="M225.5,38.8173 C225.5,47.7073 225.5,61.6173 225.5,73.3473 " fill="none" id="start-to-RFC Phase" style="stroke:#181818;stroke-width:1.0;"/><polygon fill="#181818" points="225.5,78.5573,229.5,69.5573,225.5,73.5573,221.5,69.5573,225.5,78.5573" style="stroke:#181818;stroke-width:1.0;"/></g><!--MD5=[3bd678345177aa0efaa246cee3469a25]
link RFC Phase to RFC--><g id="link_RFC Phase_RFC"><path d="M225.5,112.8973 C225.5,123.9873 225.5,138.2773 225.5,147.2373 " fill="none" id="RFC Phase-to-RFC" style="stroke:#181818;stroke-width:1.0;"/><polygon fill="#181818" points="225.5,152.4773,229.5,143.4773,225.5,147.4773,221.5,143.4773,225.5,152.4773" style="stroke:#181818;stroke-width:1.0;"/></g><!--MD5=[4b128049b31786953f4af758e2d685d9]
link RFC to Describe High-Level Problem Context\nWith Proposed solution--><g id="link_RFC_Describe High-Level Problem Context\nWith Proposed solution"><path d="M220.53,160.7873 C209.63,167.3873 182.7,183.6973 158.96,198.0673 " fill="none" id="RFC-to-Describe High-Level Problem Context\nWith Proposed solution" style="stroke:#181818;stroke-width:1.0;"/><polygon fill="#181818" points="154.57,200.7273,164.3376,199.4646,158.841,198.1276,160.178,192.631,154.57,200.7273" style="stroke:#181818;stroke-width:1.0;"/></g><!--MD5=[458350759d57d6c80ab5b463fdcafe8c]
link Describe High-Level Problem Context\nWith Proposed solution to MOCK--><g id="link_Describe High-Level Problem Context\nWith Proposed solution_MOCK"><path d="M154.62,248.8573 C176.49,262.1073 202.24,277.6973 215.89,285.9573 " fill="none" id="Describe High-Level Problem Context\nWith Proposed solution-to-MOCK" style="stroke:#181818;stroke-width:1.0;"/><polygon fill="#181818" points="220.33,288.6473,214.7022,280.5648,216.0527,286.0581,210.5594,287.4085,220.33,288.6473" style="stroke:#181818;stroke-width:1.0;"/></g><!--MD5=[e79e07dcc5d25597ce24ab4879910dbb]
link RFC to Include concrete API Designs\ne.g: OpenAPI with a PR--><g id="link_RFC_Include concrete API Designs\ne.g: OpenAPI with a PR"><path d="M230.47,160.7873 C241.37,167.3873 268.3,183.6973 292.04,198.0673 " fill="none" id="RFC-to-Include concrete API Designs\ne.g: OpenAPI with a PR" style="stroke:#181818;stroke-width:1.0;"/><polygon fill="#181818" points="296.43,200.7273,290.822,192.631,292.159,198.1276,286.6624,199.4646,296.43,200.7273" style="stroke:#181818;stroke-width:1.0;"/></g><!--MD5=[0462c694761cfb3cc95b4a43be799a47]
link Include concrete API Designs\ne.g: OpenAPI with a PR to MOCK--><g id="link_Include concrete API Designs\ne.g: OpenAPI with a PR_MOCK"><path d="M296.38,248.8573 C274.51,262.1073 248.76,277.6973 235.11,285.9573 " fill="none" id="Include concrete API Designs\ne.g: OpenAPI with a PR-to-MOCK" style="stroke:#181818;stroke-width:1.0;"/><polygon fill="#181818" points="230.67,288.6473,240.4406,287.4085,234.9473,286.0581,236.2978,280.5648,230.67,288.6473" style="stroke:#181818;stroke-width:1.0;"/></g><!--MD5=[cb29e4655f7c7935b3f58c08ae889fbb]
link MOCK to API Mocking--><g id="link_MOCK_API Mocking"><path d="M225.5,296.9473 C225.5,303.4573 225.5,318.7973 225.5,331.7573 " fill="none" id="MOCK-to-API Mocking" style="stroke:#181818;stroke-width:1.0;"/><polygon fill="#181818" points="225.5,336.7673,229.5,327.7673,225.5,331.7673,221.5,327.7673,225.5,336.7673" style="stroke:#181818;stroke-width:1.0;"/></g><!--MD5=[4cb258e9916e56de71d90d40a12504b4]
link API Mocking to Use serverless boilerplate to\ndeploy mocked version of API\n(w/ openapi-backend)--><g id="link_API Mocking_Use serverless boilerplate to\ndeploy mocked version of API\n(w/ openapi-backend)"><path d="M208.01,370.9573 C196.95,381.1873 182.24,394.7873 168.74,407.2673 " fill="none" id="API Mocking-to-Use serverless boilerplate to\ndeploy mocked version of API\n(w/ openapi-backend)" style="stroke:#181818;stroke-width:1.0;"/><polygon fill="#181818" points="164.97,410.7473,174.2912,407.567,168.6385,407.35,168.8555,401.6973,164.97,410.7473" style="stroke:#181818;stroke-width:1.0;"/></g><!--MD5=[049f236f598b6253230ba02a1bdb0f50]
link Use serverless boilerplate to\ndeploy mocked version of API\n(w/ openapi-backend) to FE--><g id="link_Use serverless boilerplate to\ndeploy mocked version of API\n(w/ openapi-backend)_FE"><path d="M170.86,472.8873 C188.22,486.5173 207.14,501.3673 217.53,509.5273 " fill="none" id="Use serverless boilerplate to\ndeploy mocked version of API\n(w/ openapi-backend)-to-FE" style="stroke:#181818;stroke-width:1.0;"/><polygon fill="#181818" points="221.67,512.7773,217.0477,504.0805,217.7325,509.6958,212.1172,510.3806,221.67,512.7773" style="stroke:#181818;stroke-width:1.0;"/></g><!--MD5=[9461eaf3327a85e731d552171e7de3a5]
link API Mocking to Generate SDK API client\npart of the boilerplate\n(w/ openapi-client-axios)--><g id="link_API Mocking_Generate SDK API client\npart of the boilerplate\n(w/ openapi-client-axios)"><path d="M243.18,370.9573 C254.36,381.1873 269.23,394.7873 282.87,407.2673 " fill="none" id="API Mocking-to-Generate SDK API client\npart of the boilerplate\n(w/ openapi-client-axios)" style="stroke:#181818;stroke-width:1.0;"/><polygon fill="#181818" points="286.68,410.7473,282.739,401.7214,282.9907,407.3726,277.3394,407.6243,286.68,410.7473" style="stroke:#181818;stroke-width:1.0;"/></g><!--MD5=[be4b7190ea0bf63a1b98ef4f2b9159b3]
link Generate SDK API client\npart of the boilerplate\n(w/ openapi-client-axios) to FE--><g id="link_Generate SDK API client\npart of the boilerplate\n(w/ openapi-client-axios)_FE"><path d="M280.72,472.8873 C263.18,486.5173 244.06,501.3673 233.55,509.5273 " fill="none" id="Generate SDK API client\npart of the boilerplate\n(w/ openapi-client-axios)-to-FE" style="stroke:#181818;stroke-width:1.0;"/><polygon fill="#181818" points="229.37,512.7773,238.9281,510.4021,233.3145,509.7047,234.0119,504.091,229.37,512.7773" style="stroke:#181818;stroke-width:1.0;"/></g><!--MD5=[c1b35baf49621e3084c44ecd93c8d300]
link FE to Frontend Development--><g id="link_FE_Frontend Development"><path d="M225.5,520.9473 C225.5,527.4573 225.5,542.7973 225.5,555.7573 " fill="none" id="FE-to-Frontend Development" style="stroke:#181818;stroke-width:1.0;"/><polygon fill="#181818" points="225.5,560.7673,229.5,551.7673,225.5,555.7673,221.5,551.7673,225.5,560.7673" style="stroke:#181818;stroke-width:1.0;"/></g><!--MD5=[02ac2e91f22907662c35e84fbc333445]
link Frontend Development to Use create-mfe-app boilerplate\nto deploy microfrontend--><g id="link_Frontend Development_Use create-mfe-app boilerplate\nto deploy microfrontend"><path d="M225.5,595.1473 C225.5,605.0273 225.5,617.8773 225.5,629.3673 " fill="none" id="Frontend Development-to-Use create-mfe-app boilerplate\nto deploy microfrontend" style="stroke:#181818;stroke-width:1.0;"/><polygon fill="#181818" points="225.5,634.5373,229.5,625.5373,225.5,629.5373,221.5,625.5373,225.5,634.5373" style="stroke:#181818;stroke-width:1.0;"/></g><!--MD5=[f94bbbdc2e0bf8db2630436e5fb7722e]
link Use create-mfe-app boilerplate\nto deploy microfrontend to Add feature toggle to\nhide feature in production--><g id="link_Use create-mfe-app boilerplate\nto deploy microfrontend_Add feature toggle to\nhide feature in production"><path d="M225.5,682.8273 C225.5,693.5273 225.5,706.3473 225.5,717.6073 " fill="none" id="Use create-mfe-app boilerplate\nto deploy microfrontend-to-Add feature toggle to\nhide feature in production" style="stroke:#181818;stroke-width:1.0;"/><polygon fill="#181818" points="225.5,722.6673,229.5,713.6673,225.5,717.6673,221.5,713.6673,225.5,722.6673" style="stroke:#181818;stroke-width:1.0;"/></g><!--MD5=[62bedba5bf10665581a96845a8071750]
link Add feature toggle to\nhide feature in production to Develop microfrontend against\nmocked API contract--><g id="link_Add feature toggle to\nhide feature in production_Develop microfrontend against\nmocked API contract"><path d="M225.5,770.8273 C225.5,781.5273 225.5,794.3473 225.5,805.6073 " fill="none" id="Add feature toggle to\nhide feature in production-to-Develop microfrontend against\nmocked API contract" style="stroke:#181818;stroke-width:1.0;"/><polygon fill="#181818" points="225.5,810.6673,229.5,801.6673,225.5,805.6673,221.5,801.6673,225.5,810.6673" style="stroke:#181818;stroke-width:1.0;"/></g><!--MD5=[308db52ccca1b12b8bd23c46a8964f95]
link Develop microfrontend against\nmocked API contract to Still cheap to rapidly change\nAPI Design/UI design during this phase--><g id="link_Develop microfrontend against\nmocked API contract_Still cheap to rapidly change\nAPI Design/UI design during this phase"><path d="M225.5,858.8273 C225.5,869.5273 225.5,882.3473 225.5,893.6073 " fill="none" id="Develop microfrontend against\nmocked API contract-to-Still cheap to rapidly change\nAPI Design/UI design during this phase" style="stroke:#181818;stroke-width:1.0;"/><polygon fill="#181818" points="225.5,898.6673,229.5,889.6673,225.5,893.6673,221.5,889.6673,225.5,898.6673" style="stroke:#181818;stroke-width:1.0;"/></g><!--MD5=[40fb198353b3b752cc88dbf65b9b0a02]
link Still cheap to rapidly change\nAPI Design/UI design during this phase to Backend Development--><g id="link_Still cheap to rapidly change\nAPI Design/UI design during this phase_Backend Development"><path d="M225.5,947.0573 C225.5,958.0073 225.5,970.9673 225.5,981.6373 " fill="none" id="Still cheap to rapidly change\nAPI Design/UI design during this phase-to-Backend Development" style="stroke:#181818;stroke-width:1.0;"/><polygon fill="#181818" points="225.5,986.6673,229.5,977.6673,225.5,981.6673,221.5,977.6673,225.5,986.6673" style="stroke:#181818;stroke-width:1.0;"/></g><!--MD5=[bc479924345af7005615db46d63b941e]
link Backend Development to Implement serverless backend\nusing AWS services according to API Design--><g id="link_Backend Development_Implement serverless backend\nusing AWS services according to API Design"><path d="M225.5,1021.1473 C225.5,1031.0273 225.5,1043.8773 225.5,1055.3673 " fill="none" id="Backend Development-to-Implement serverless backend\nusing AWS services according to API Design" style="stroke:#181818;stroke-width:1.0;"/><polygon fill="#181818" points="225.5,1060.5373,229.5,1051.5373,225.5,1055.5373,221.5,1051.5373,225.5,1060.5373" style="stroke:#181818;stroke-width:1.0;"/></g><!--MD5=[427bd3db6ebdac41114fc514f92ec402]
link Implement serverless backend\nusing AWS services according to API Design to BETA Release--><g id="link_Implement serverless backend\nusing AWS services according to API Design_BETA Release"><path d="M225.5,1109.0573 C225.5,1120.0073 225.5,1132.9673 225.5,1143.6373 " fill="none" id="Implement serverless backend\nusing AWS services according to API Design-to-BETA Release" style="stroke:#181818;stroke-width:1.0;"/><polygon fill="#181818" points="225.5,1148.6673,229.5,1139.6673,225.5,1143.6673,221.5,1139.6673,225.5,1148.6673" style="stroke:#181818;stroke-width:1.0;"/></g><!--MD5=[9a354d5a4373fea224c67a801e948e8c]
link BETA Release to Once the feature is tested and ready\nfor internal/pilot customers to test\nship behind a BETA feature toggle--><g id="link_BETA Release_Once the feature is tested and ready\nfor internal/pilot customers to test\nship behind a BETA feature toggle"><path d="M225.5,1182.9573 C225.5,1192.7473 225.5,1205.6273 225.5,1217.6573 " fill="none" id="BETA Release-to-Once the feature is tested and ready\nfor internal/pilot customers to test\nship behind a BETA feature toggle" style="stroke:#181818;stroke-width:1.0;"/><polygon fill="#181818" points="225.5,1222.7473,229.5,1213.7473,225.5,1217.7473,221.5,1213.7473,225.5,1222.7473" style="stroke:#181818;stroke-width:1.0;"/></g><!--MD5=[d8dbc72d5f67d8aadece037dae3c872e]
link Once the feature is tested and ready\nfor internal/pilot customers to test\nship behind a BETA feature toggle to Full Release--><g id="link_Once the feature is tested and ready\nfor internal/pilot customers to test\nship behind a BETA feature toggle_Full Release"><path d="M225.5,1284.8573 C225.5,1296.2373 225.5,1308.9573 225.5,1319.3873 " fill="none" id="Once the feature is tested and ready\nfor internal/pilot customers to test\nship behind a BETA feature toggle-to-Full Release" style="stroke:#181818;stroke-width:1.0;"/><polygon fill="#181818" points="225.5,1324.6073,229.5,1315.6073,225.5,1319.6073,221.5,1315.6073,225.5,1324.6073" style="stroke:#181818;stroke-width:1.0;"/></g><!--MD5=[e1b6a0ee440103ba787204252d720916]
link Full Release to Remove BETA badge from toggle--><g id="link_Full Release_Remove BETA badge from toggle"><path d="M225.5,1359.1173 C225.5,1369.2373 225.5,1382.3573 225.5,1393.3173 " fill="none" id="Full Release-to-Remove BETA badge from toggle" style="stroke:#181818;stroke-width:1.0;"/><polygon fill="#181818" points="225.5,1398.5073,229.5,1389.5073,225.5,1393.5073,221.5,1389.5073,225.5,1398.5073" style="stroke:#181818;stroke-width:1.0;"/></g><!--MD5=[7be2e5106b2c78e82fe8ba383e186957]
link Remove BETA badge from toggle to Marketing announces new feature--><g id="link_Remove BETA badge from toggle_Marketing announces new feature"><path d="M225.5,1433.1173 C225.5,1443.2373 225.5,1456.3573 225.5,1467.3173 " fill="none" id="Remove BETA badge from toggle-to-Marketing announces new feature" style="stroke:#181818;stroke-width:1.0;"/><polygon fill="#181818" points="225.5,1472.5073,229.5,1463.5073,225.5,1467.5073,221.5,1463.5073,225.5,1472.5073" style="stroke:#181818;stroke-width:1.0;"/></g><!--MD5=[ce5dd742d055f0673fe2819f03814284]
link Marketing announces new feature to Optional: Add userflow to guide users--><g id="link_Marketing announces new feature_Optional: Add userflow to guide users"><path d="M225.5,1507.1173 C225.5,1517.2373 225.5,1530.3573 225.5,1541.3173 " fill="none" id="Marketing announces new feature-to-Optional: Add userflow to guide users" style="stroke:#181818;stroke-width:1.0;"/><polygon fill="#181818" points="225.5,1546.5073,229.5,1537.5073,225.5,1541.5073,221.5,1537.5073,225.5,1546.5073" style="stroke:#181818;stroke-width:1.0;"/></g><!--MD5=[bb4765fd20a31e198a130583a81e3039]
link Optional: Add userflow to guide users to Not optional: Organise a launch party 🎉--><g id="link_Optional: Add userflow to guide users_Not optional: Organise a launch party &#127881;"><path d="M225.5,1581.1173 C225.5,1591.2373 225.5,1604.3573 225.5,1615.3173 " fill="none" id="Optional: Add userflow to guide users-to-Not optional: Organise a launch party &#127881;" style="stroke:#181818;stroke-width:1.0;"/><polygon fill="#181818" points="225.5,1620.5073,229.5,1611.5073,225.5,1615.5073,221.5,1611.5073,225.5,1620.5073" style="stroke:#181818;stroke-width:1.0;"/></g><!--MD5=[88a4fd5f5d8d0d9d711dbeda4ef5c94e]
link Not optional: Organise a launch party 🎉 to end--><g id="link_Not optional: Organise a launch party &#127881;_end"><path d="M225.5,1654.8473 C225.5,1665.3773 225.5,1679.0273 225.5,1689.2373 " fill="none" id="Not optional: Organise a launch party &#127881;-to-end" style="stroke:#181818;stroke-width:1.0;"/><polygon fill="#181818" points="225.5,1694.5173,229.5,1685.5173,225.5,1689.5173,221.5,1685.5173,225.5,1694.5173" style="stroke:#181818;stroke-width:1.0;"/></g><!--MD5=[2ede7e542c4e8068eb6495d1d746ba8d]
@startuml
header API First / RFC Flow

skinparam activity {
  BackgroundColor<< PHASE >> gold
  FontName Roboto
}

(*) - -> "RFC Phase" << PHASE >>
- -> ===RFC===
===RFC=== - ->Describe High-Level Problem Context\nWith Proposed solution
- -> ===MOCK===

===RFC=== - ->Include concrete API Designs\ne.g: OpenAPI with a PR
- -> ===MOCK===

===MOCK===- ->"API Mocking" << PHASE >>

- ->Use serverless boilerplate to\ndeploy mocked version of API\n(w/ openapi-backend)
- -> ===FE===
"API Mocking"- ->Generate SDK API client\npart of the boilerplate\n(w/ openapi-client-axios)
- ->===FE===
- ->"Frontend Development" << PHASE >>

"Frontend Development"- ->Use create-mfe-app boilerplate\nto deploy microfrontend
- ->"Add feature toggle to\nhide feature in production"
- ->Develop microfrontend against\nmocked API contract
- ->Still cheap to rapidly change\nAPI Design/UI design during this phase
- ->"Backend Development" << PHASE >>
- ->Implement serverless backend\nusing AWS services according to API Design

- ->BETA Release << PHASE >>
- ->Once the feature is tested and ready\nfor internal/pilot customers to test\nship behind a BETA feature toggle
- ->Full Release << PHASE >>
- ->Remove BETA badge from toggle
- ->Marketing announces new feature
- ->Optional: Add userflow to guide users
- ->Not optional: Organise a launch party 🎉
- -> (*)
@enduml

PlantUML version 1.2022.7(Mon Aug 22 18:01:30 WEST 2022)
(GPL source distribution)
Java Runtime: OpenJDK Runtime Environment
JVM: OpenJDK 64-Bit Server VM
Default Encoding: UTF-8
Language: en
Country: US
--></g></svg>